# xmcd
#
# Track frame offsets: 
#        150
#        18234
#        33118
#        50587
#        66360
#        83543
#
# Disc length: 1286 seconds
#
# Revision: 0
# Processed by: cddbd v1.5.2PL0 Copyright (c) Steve Scherf et al.
# Submitted via: ExactAudioCopy v0.99pb5
#
DISCID=3f050406
DTITLE=American Aquarium - Bones
DYEAR=2008
DGENRE=Alternative Country
TTITLE0=Lonely Aint Easy
TTITLE1=Emelia
TTITLE2=Bigger in Texas
TTITLE3=Betting Man
TTITLE4=Bones
TTITLE5=Good Fight
EXTD=
EXTT0=
EXTT1=
EXTT2=
EXTT3=
EXTT4=
EXTT5=
PLAYORDER=
